# xmcd CD database file
#
# Track frame offsets:
#	150
#	15131
#	35598
#	53230
#	63897
#	81765
#	96809
#	111549
#	122458
#	134842
#	148166
#	167435
#	181853
#	194868
#	209504
#	239710
#
# Disc length: 4359 seconds
#
# Revision: 3
# Processed by: cddbd v1.5.2PL0 Copyright (c) Steve Scherf et al.
# Submitted via: CDex 1.70beta2
#
DISCID=eb110510
DTITLE=Rufus and Carla Thomas - Chronicle (Greatest Hits)
DYEAR=1979
DGENRE=R&B/Soul
TTITLE0=Do The Funky Chicken (Rufus Thomas)
TTITLE1=Sixty Minute Man (Ward-Marks)
TTITLE2=The Preacher And The Bear (Rufus Thomas)
TTITLE3=(Do The) Push And Pull (Part 1) (Rufus Thomas)
TTITLE4=The World Is Round (Rufus Thomas)
TTITLE5=The Breakdown (Part 1) (Floyd-Rice-Thomas)
TTITLE6=Do The Funky Penguin (Thomas-Rice-Nixon-Bridges)
TTITLE7=Where Do I Go (Rado-Ragni-McDermot)
TTITLE8=I've Fallen In Love (Carla Thomas)
TTITLE9=I Like What You're Doing (To Me) (Crutcher-Banks-Jackson)
TTITLE10=Guide Me Well (Hayes-Porter-Davis)
TTITLE11=You've Got A Cushion To Fall On (Banks-Jackson)
TTITLE12=(Do The) Push And Pull (Part 2) (Rufus Thomas)
TTITLE13=The Breakdown (Part 2) (Rufus Thomas)
TTITLE14=Sugar
TTITLE15=Multimedia-Track
EXTD=© 1991/1999\nLabel: Stax Records (Fantasy Inc.]\nSCD24 4124-2\n24 BIT Remastered YEAR: 1979
EXTT0=
EXTT1=
EXTT2=
EXTT3=
EXTT4=
EXTT5=
EXTT6=
EXTT7=
EXTT8=
EXTT9=
EXTT10=
EXTT11=
EXTT12=
EXTT13=
EXTT14=
EXTT15=
PLAYORDER=
